<?xml version="1.0" encoding="utf-8"?>
<!-- Generator: Adobe Illustrator 18.0.0, SVG Export Plug-In . SVG Version: 6.00 Build 0)  -->
<!DOCTYPE svg PUBLIC "-//W3C//DTD SVG 1.1//EN" "http://www.w3.org/Graphics/SVG/1.1/DTD/svg11.dtd">
<svg version="1.1" xmlns="http://www.w3.org/2000/svg" xmlns:xlink="http://www.w3.org/1999/xlink" x="0px" y="0px"
	 viewBox="0 0 247.8 97.1" enable-background="new 0 0 247.8 97.1" xml:space="preserve">
<g id="art-1">
	<g id="Layer_1">
		<g id="Layer_5">
		</g>
	</g>
	<g id="bg">
	</g>
</g>
<g id="art-2_1_">
	<g id="bg_copy">
	</g>
</g>
<g id="logo-3">
	<g>
		<path fill="#FF1E00" d="M2.7,22.9C8.6,9.4,18.8,1.7,33.5,0.2c16.1-1.6,30.7,7.9,36.7,21.9c0.2,0.5,0.4,0.9,0.5,1.4
			c0,3.1-1.8,5.5-3.3,8c-3.3,5.7-7.7,10.5-12.6,14.9c-4.8,4.2-10,7.7-15.6,10.8c-0.7,0.4-1.4,0.8-2.2,0.9c-0.2,0-0.3,0-0.5-0.1
			c-0.1-0.1-0.2-0.2-0.3-0.4c-0.4-0.9-0.3-1.9-0.3-2.8c0-2.4,0-4.8,0-7.3c0-2-0.5-2.5-2.6-2.7c-4.8-0.4-9.4-1.7-13.7-4
			c-6.3-3.3-11.5-7.9-15.3-14C3.4,25.6,2.9,24.3,2.7,22.9z"/>
		<path fill="#FFAB03" d="M37.2,70.2c21.4-8.4,31.4-27.8,33.9-37.8c0.1-0.4,0.2-0.9,0.4-1.3c0.1-0.4,0.3-0.8,0.8-0.8
			c0.6,0,0.2,0.7,0.5,1c1.7,13.4-3.2,24.6-11.7,34.5C54.7,73.6,46.7,79.3,37.8,84c-1.1,0.6-1.3,0.3-1.3-0.8c0-4,0-8,0-11.9
			C36.5,70.8,36.9,70.5,37.2,70.2"/>
		<path fill="#FFAB03" d="M34.1,71c-18.6-1-37.7-18.3-33.5-40.9c1.3-0.1,1.2,1,1.5,1.7C3,34.5,4,37.2,5.5,39.5
			c6.2,9.6,14.9,15.2,26.2,17.1c1.1,0.2,2.2,0.4,3.3,0.3c0.6,0,1.2,0.2,1.6,0.7l0,0c0.5,0.5,0.5,1.2,0.5,1.8c0,3,0,5.9,0,8.9
			C37,71.3,37,71.3,34.1,71z"/>
		<path fill="#FF6C08" d="M36.5,57.7C21.1,57.6,7.2,48,1.8,33.6c-0.4-1.1-0.5-2.4-1.2-3.4c0.4-2.5,1.1-4.9,2.1-7.3
			c1.4,1.6,2.1,3.6,3.3,5.4c6.1,8.4,14.3,13.6,24.5,15.5c1.5,0.3,3,0.5,4.5,0.6c1.2,0.1,1.6,0.6,1.6,1.8
			C36.5,49.9,36.5,53.8,36.5,57.7z"/>
		<path fill="#FF6C08" d="M72.8,31.4c-0.3-0.5-0.5-0.5-0.6,0.1c-0.5,2.3-1.2,4.6-2.1,6.7c-2.4,5.9-5.9,11.1-10.2,15.7
			c-6.4,6.9-13.9,12.8-22.3,17c-0.8-0.4-0.6-0.8-0.6-1.4c0-3.8,0-8.1,0-11.9c4.4-2.5,8.8-5,12.9-8.1c7.8-5.9,14.3-12.8,18.8-21.6
			c0.8-1.5,1.4-3,2.1-4.5C71.8,26,72.4,28.7,72.8,31.4z"/>
	</g>
	<g>
		<g>
			<path fill="#051441" d="M92.8,57.5c-2.8-3-4.2-7.1-4.2-12.4c0-5.3,1.4-9.4,4.2-12.4s6.7-4.5,11.7-4.5c2.9,0,5.5,0.6,7.7,1.7
				c2.2,1.1,3.9,2.7,5.1,4.7l-4.4,3.9c-0.9-1.4-2-2.5-3.4-3.3c-1.4-0.8-3-1.2-4.6-1.2c-2.8,0-4.9,1-6.5,3c-1.6,2-2.3,4.7-2.3,8.2
				c0,3.5,0.8,6.2,2.3,8.2c1.6,2,3.7,3,6.5,3c1.6,0,3.2-0.4,4.6-1.2s2.6-2,3.4-3.4l4.4,3.9c-1.2,2.1-2.9,3.7-5.1,4.8
				c-2.2,1.1-4.8,1.7-7.7,1.7C99.5,62,95.6,60.5,92.8,57.5z"/>
			<path fill="#051441" d="M118.4,13.1h7.3v20c1-1.5,2.4-2.7,4.3-3.6c1.9-0.9,3.9-1.3,6-1.3c3.7,0,6.7,1.2,8.9,3.7
				c2.2,2.5,3.3,5.9,3.3,10.2v19.2h-7.4V42.5c0-2.8-0.6-4.9-1.7-6.5c-1.1-1.5-2.8-2.3-4.8-2.3c-2.6,0-4.6,0.9-6.2,2.7
				c-1.6,1.8-2.3,4.2-2.3,7.1v17.7h-7.3V13.1z"/>
			<path fill="#051441" d="M155.9,60.6c-1.7-0.9-3-2.1-3.9-3.7c-0.9-1.6-1.4-3.3-1.4-5.3c0-3.3,1.3-5.8,3.9-7.6
				c2.6-1.8,6.2-2.7,11-2.7h5.7v-1.5c0-2-0.6-3.4-1.7-4.5c-1.1-1-2.7-1.6-4.7-1.6c-2,0-3.8,0.4-5.5,1.1c-1.7,0.7-3.1,1.7-4.3,3.1
				l-3.4-4.4c1.6-1.8,3.6-3.1,6-4.1c2.3-1,4.8-1.4,7.4-1.4c4.2,0,7.6,1,9.9,3c2.4,2,3.6,4.8,3.6,8.5v14.9c0,0.9,0.1,2,0.3,3.3
				c0.2,1.3,0.4,2.4,0.6,3.4h-6.6c-0.4-0.9-0.7-2.3-0.8-4.1h-0.1c-2.5,3.2-5.9,4.7-10.1,4.7C159.5,62,157.6,61.5,155.9,60.6z
				 M168.8,54.6c1.5-1.2,2.2-2.7,2.2-4.4v-3.8h-5.8c-2.4,0-4.2,0.5-5.5,1.4c-1.3,0.9-1.9,2.2-1.9,3.9c0,1.5,0.5,2.6,1.4,3.4
				c1,0.8,2.3,1.2,4,1.2C165.5,56.4,167.3,55.8,168.8,54.6z"/>
			<path fill="#051441" d="M183,36.7c0-3.7-0.1-6.3-0.2-7.9h7c0.2,1.7,0.3,3.6,0.3,5.7v0.7h0.2c0.8-2.2,2.2-3.9,4.2-5.1
				c2-1.3,4.3-1.9,6.9-1.9c0.8,0,1.4,0.1,2,0.2v5.8c-0.4-0.1-1-0.1-1.8-0.1c-2,0-3.9,0.6-5.6,1.7c-1.7,1.1-3.1,2.6-4.1,4.5
				c-1,1.9-1.5,4-1.5,6.2v14.9H183V36.7z"/>
			<path fill="#051441" d="M206.8,59.8c-1.4-1.5-2-3.6-2-6.4V13.1h7.4v40.4c0,1.2,0.2,2,0.7,2.5c0.5,0.5,1.3,0.7,2.3,0.7
				s2.3-0.3,3.6-0.8l1.1,4.1c-1.9,1.3-4.2,2-7.1,2C210.2,62,208.2,61.2,206.8,59.8z"/>
			<path fill="#051441" d="M224.4,60.6c-1.7-0.9-3-2.1-3.9-3.7c-0.9-1.6-1.4-3.3-1.4-5.3c0-3.3,1.3-5.8,3.9-7.6
				c2.6-1.8,6.2-2.7,11-2.7h5.7v-1.5c0-2-0.6-3.4-1.7-4.5c-1.1-1-2.7-1.6-4.7-1.6c-2,0-3.8,0.4-5.5,1.1c-1.7,0.7-3.1,1.7-4.3,3.1
				l-3.4-4.4c1.6-1.8,3.6-3.1,6-4.1c2.3-1,4.8-1.4,7.4-1.4c4.2,0,7.6,1,9.9,3c2.4,2,3.6,4.8,3.6,8.5v14.9c0,0.9,0.1,2,0.3,3.3
				c0.2,1.3,0.4,2.4,0.6,3.4h-6.6c-0.4-0.9-0.7-2.3-0.8-4.1h-0.1c-2.5,3.2-5.9,4.7-10.1,4.7C228,62,226.1,61.5,224.4,60.6z
				 M237.3,54.6c1.5-1.2,2.2-2.7,2.2-4.4v-3.8h-5.8c-2.4,0-4.2,0.5-5.5,1.4c-1.3,0.9-1.9,2.2-1.9,3.9c0,1.5,0.5,2.6,1.4,3.4
				c1,0.8,2.3,1.2,4,1.2C234,56.4,235.8,55.8,237.3,54.6z"/>
		</g>
	</g>
</g>
<g id="Layer_9" display="none">
</g>
</svg>
